<svg width="41" height="40" viewBox="0 0 41 40" fill="none" xmlns="http://www.w3.org/2000/svg">
<path d="M34.25 6.25H6.75C6.08696 6.25 5.45107 6.51339 4.98223 6.98223C4.51339 7.45107 4.25 8.08696 4.25 8.75V28.75C4.25 29.413 4.51339 30.0489 4.98223 30.5178C5.45107 30.9866 6.08696 31.25 6.75 31.25L16.0469 31.2594L18.3562 35.0359C18.5778 35.4056 18.8912 35.7116 19.2659 35.9244C19.6407 36.1373 20.0641 36.2496 20.495 36.2505C20.926 36.2515 21.3498 36.141 21.7255 35.9298C22.1012 35.7187 22.4159 35.414 22.6391 35.0453L24.9578 31.25H34.25C34.913 31.25 35.5489 30.9866 36.0178 30.5178C36.4866 30.0489 36.75 29.413 36.75 28.75V8.75C36.75 8.08696 36.4866 7.45107 36.0178 6.98223C35.5489 6.51339 34.913 6.25 34.25 6.25ZM13.625 20.625C13.2542 20.625 12.8916 20.515 12.5833 20.309C12.275 20.103 12.0346 19.8101 11.8927 19.4675C11.7508 19.1249 11.7137 18.7479 11.786 18.3842C11.8584 18.0205 12.037 17.6864 12.2992 17.4242C12.5614 17.162 12.8955 16.9834 13.2592 16.911C13.6229 16.8387 13.9999 16.8758 14.3425 17.0177C14.6851 17.1596 14.978 17.4 15.184 17.7083C15.39 18.0166 15.5 18.3792 15.5 18.75C15.5 19.2473 15.3025 19.7242 14.9508 20.0758C14.5992 20.4275 14.1223 20.625 13.625 20.625ZM20.5 20.625C20.1292 20.625 19.7666 20.515 19.4583 20.309C19.15 20.103 18.9096 19.8101 18.7677 19.4675C18.6258 19.1249 18.5887 18.7479 18.661 18.3842C18.7334 18.0205 18.912 17.6864 19.1742 17.4242C19.4364 17.162 19.7705 16.9834 20.1342 16.911C20.4979 16.8387 20.8749 16.8758 21.2175 17.0177C21.5601 17.1596 21.853 17.4 22.059 17.7083C22.265 18.0166 22.375 18.3792 22.375 18.75C22.375 19.2473 22.1775 19.7242 21.8258 20.0758C21.4742 20.4275 20.9973 20.625 20.5 20.625ZM27.375 20.625C27.0042 20.625 26.6416 20.515 26.3333 20.309C26.025 20.103 25.7846 19.8101 25.6427 19.4675C25.5008 19.1249 25.4637 18.7479 25.536 18.3842C25.6084 18.0205 25.787 17.6864 26.0492 17.4242C26.3114 17.162 26.6455 16.9834 27.0092 16.911C27.3729 16.8387 27.7499 16.8758 28.0925 17.0177C28.4351 17.1596 28.728 17.4 28.934 17.7083C29.14 18.0166 29.25 18.3792 29.25 18.75C29.25 19.2473 29.0525 19.7242 28.7008 20.0758C28.3492 20.4275 27.8723 20.625 27.375 20.625Z" fill="url(#paint0_linear_537_21122)"/>
<defs>
<linearGradient id="paint0_linear_537_21122" x1="36.75" y1="9.34411" x2="13.9929" y2="28.1895" gradientUnits="userSpaceOnUse">
<stop stop-color="#4290E6"/>
<stop offset="0.98" stop-color="#0057B8"/>
</linearGradient>
</defs>
</svg>
