<svg viewBox="0 0 16 17" fill="none" xmlns="http://www.w3.org/2000/svg">
    <path d="M15.375 8.02736V15.25C15.375 15.5815 15.2433 15.8995 15.0089 16.1339C14.7745 16.3683 14.4565 16.5 14.125 16.5H11C10.6685 16.5 10.3505 16.3683 10.1161 16.1339C9.8817 15.8995 9.75 15.5815 9.75 15.25V12.125C9.75 11.9593 9.68415 11.8003 9.56694 11.6831C9.44973 11.5659 9.29076 11.5 9.125 11.5H6.625C6.45924 11.5 6.30027 11.5659 6.18306 11.6831C6.06585 11.8003 6 11.9593 6 12.125V15.25C6 15.5815 5.8683 15.8995 5.63388 16.1339C5.39946 16.3683 5.08152 16.5 4.75 16.5H1.625C1.29348 16.5 0.975537 16.3683 0.741116 16.1339C0.506696 15.8995 0.375 15.5815 0.375 15.25V8.02736C0.374974 7.85436 0.410859 7.68323 0.480384 7.52482C0.549909 7.3664 0.651561 7.22414 0.778906 7.10705L7.02891 1.21017L7.0375 1.20158C7.26761 0.992306 7.56748 0.876343 7.87852 0.876343C8.18955 0.876343 8.48942 0.992306 8.71953 1.20158C8.7222 1.20463 8.72507 1.2075 8.72812 1.21017L14.9781 7.10705C15.1042 7.22476 15.2045 7.3673 15.2728 7.52568C15.3411 7.68407 15.3759 7.85488 15.375 8.02736Z" fill="url(#paint0_linear_288_3812)"/>
    <defs>
    <linearGradient id="paint0_linear_288_3812" x1="7.83563" y1="8.57583" x2="7.81334" y2="38.7272" gradientUnits="userSpaceOnUse">
    <stop stop-color="#0057B8"/>
    <stop offset="0.98" stop-color="#003E83"/>
    </linearGradient>
    </defs>
</svg>