<svg viewBox="0 0 21 20" fill="none" xmlns="http://www.w3.org/2000/svg">
    <path d="M17.7032 13.7453C17.2696 12.9984 16.6251 10.8852 16.6251 8.125C16.6251 6.4674 15.9666 4.87769 14.7945 3.70558C13.6224 2.53348 12.0327 1.875 10.3751 1.875C8.71747 1.875 7.12776 2.53348 5.95565 3.70558C4.78355 4.87769 4.12507 6.4674 4.12507 8.125C4.12507 10.8859 3.47976 12.9984 3.04616 13.7453C2.93544 13.9352 2.87674 14.1509 2.87598 14.3707C2.87523 14.5905 2.93245 14.8066 3.04187 14.9973C3.15129 15.1879 3.30904 15.3463 3.49922 15.4565C3.68939 15.5667 3.90527 15.6248 4.12507 15.625H7.31335C7.45755 16.3306 7.84103 16.9647 8.39892 17.4201C8.95682 17.8756 9.6549 18.1243 10.3751 18.1243C11.0952 18.1243 11.7933 17.8756 12.3512 17.4201C12.9091 16.9647 13.2926 16.3306 13.4368 15.625H16.6251C16.8448 15.6247 17.0606 15.5665 17.2507 15.4562C17.4407 15.346 17.5984 15.1875 17.7077 14.9969C17.817 14.8063 17.8742 14.5903 17.8734 14.3705C17.8726 14.1508 17.8139 13.9351 17.7032 13.7453ZM10.3751 16.875C9.98743 16.8749 9.60935 16.7546 9.29288 16.5308C8.97641 16.3069 8.7371 15.9905 8.60788 15.625H12.1423C12.013 15.9905 11.7737 16.3069 11.4573 16.5308C11.1408 16.7546 10.7627 16.8749 10.3751 16.875Z" fill="#0057B8"/>
</svg>