<svg viewBox="0 0 21 20" fill="none" xmlns="http://www.w3.org/2000/svg">
    <path d="M18.1657 16.5626C16.9758 14.5055 15.1422 13.0305 13.0024 12.3313C14.0608 11.7012 14.8832 10.741 15.3432 9.59833C15.8031 8.45561 15.8753 7.19349 15.5485 6.0058C15.2218 4.81811 14.5142 3.77051 13.5344 3.0239C12.5546 2.27728 11.3568 1.87292 10.125 1.87292C8.89321 1.87292 7.69544 2.27728 6.71567 3.0239C5.7359 3.77051 5.02831 4.81811 4.70154 6.0058C4.37478 7.19349 4.44693 8.45561 4.90689 9.59833C5.36686 10.741 6.18922 11.7012 7.24768 12.3313C5.10784 13.0297 3.27425 14.5047 2.0844 16.5626C2.04077 16.6337 2.01183 16.7129 1.99929 16.7954C1.98674 16.8779 1.99085 16.9621 2.01138 17.043C2.0319 17.1239 2.06841 17.1998 2.11877 17.2664C2.16913 17.333 2.23231 17.3888 2.30458 17.4305C2.37685 17.4722 2.45675 17.4991 2.53957 17.5095C2.62238 17.5198 2.70643 17.5135 2.78676 17.4909C2.86709 17.4682 2.94208 17.4297 3.00728 17.3776C3.07249 17.3255 3.12661 17.2609 3.16643 17.1876C4.63831 14.6438 7.23987 13.1251 10.125 13.1251C13.0102 13.1251 15.6117 14.6438 17.0836 17.1876C17.1235 17.2609 17.1776 17.3255 17.2428 17.3776C17.308 17.4297 17.383 17.4682 17.4633 17.4909C17.5436 17.5135 17.6277 17.5198 17.7105 17.5095C17.7933 17.4991 17.8732 17.4722 17.9455 17.4305C18.0177 17.3888 18.0809 17.333 18.1313 17.2664C18.1816 17.1998 18.2182 17.1239 18.2387 17.043C18.2592 16.9621 18.2633 16.8779 18.2508 16.7954C18.2382 16.7129 18.2093 16.6337 18.1657 16.5626ZM5.75003 7.50005C5.75003 6.63476 6.00662 5.7889 6.48735 5.06943C6.96808 4.34997 7.65136 3.78921 8.45079 3.45808C9.25022 3.12694 10.1299 3.0403 10.9785 3.20911C11.8272 3.37792 12.6068 3.7946 13.2186 4.40646C13.8305 5.01831 14.2472 5.79786 14.416 6.64653C14.5848 7.4952 14.4981 8.37486 14.167 9.17429C13.8359 9.97372 13.2751 10.657 12.5556 11.1377C11.8362 11.6185 10.9903 11.8751 10.125 11.8751C8.96509 11.8738 7.85301 11.4125 7.03281 10.5923C6.2126 9.77207 5.75127 8.65999 5.75003 7.50005Z" fill="#475467"/>
</svg>