<svg width="41" height="40" viewBox="0 0 41 40" fill="none" xmlns="http://www.w3.org/2000/svg">
<rect x="0.25" width="40" height="40" rx="20" fill="#E8F0FF"/>
<path d="M27.25 13.25H24.6512L23.3734 11.3338C23.305 11.2311 23.2123 11.147 23.1035 11.0888C22.9948 11.0306 22.8733 11.0001 22.75 11H16.75C16.6267 11.0001 16.5052 11.0306 16.3965 11.0888C16.2877 11.147 16.195 11.2311 16.1266 11.3338L14.8478 13.25H12.25C11.6533 13.25 11.081 13.4871 10.659 13.909C10.2371 14.331 10 14.9033 10 15.5V26C10 26.5967 10.2371 27.169 10.659 27.591C11.081 28.0129 11.6533 28.25 12.25 28.25H27.25C27.8467 28.25 28.419 28.0129 28.841 27.591C29.2629 27.169 29.5 26.5967 29.5 26V15.5C29.5 14.9033 29.2629 14.331 28.841 13.909C28.419 13.4871 27.8467 13.25 27.25 13.25ZM23.125 20.375C23.125 21.0425 22.9271 21.695 22.5562 22.25C22.1854 22.8051 21.6583 23.2376 21.0416 23.4931C20.4249 23.7485 19.7463 23.8154 19.0916 23.6852C18.4369 23.5549 17.8355 23.2335 17.3635 22.7615C16.8915 22.2895 16.5701 21.6881 16.4398 21.0334C16.3096 20.3787 16.3765 19.7001 16.6319 19.0834C16.8874 18.4667 17.3199 17.9396 17.875 17.5688C18.43 17.1979 19.0825 17 19.75 17C20.6451 17 21.5035 17.3556 22.1365 17.9885C22.7694 18.6214 23.125 19.4799 23.125 20.375Z" fill="#4785FD"/>
</svg>
