<svg width="122" height="24" viewBox="0 0 122 24" fill="none" xmlns="http://www.w3.org/2000/svg">
    <path d="M81.8066 9.69735V0.739502H85.1193C85.7231 0.739502 86.2575 0.850501 86.7206 1.07055C87.1855 1.2906 87.5482 1.61192 87.8106 2.03255C88.073 2.45318 88.2042 2.96533 88.2042 3.56512C88.2042 4.1649 88.0711 4.66538 87.8048 5.08601C87.5386 5.50663 87.1759 5.8299 86.7148 6.05384C86.2537 6.27779 85.7212 6.39073 85.1193 6.39073H83.4273V9.69735H81.8066ZM83.4273 4.94774H85.1424C85.4357 4.94774 85.6903 4.88932 85.9045 4.77248C86.1186 4.65564 86.2865 4.49401 86.4042 4.28564C86.5238 4.07727 86.5836 3.8358 86.5836 3.56317C86.5836 3.29054 86.5238 3.03933 86.4042 2.83486C86.2846 2.63039 86.1186 2.4707 85.9045 2.35386C85.6903 2.23702 85.4357 2.1786 85.1424 2.1786H83.4273V4.94385V4.94774Z" fill="white"/>
    <path d="M90.7416 9.84306C90.2882 9.84306 89.8965 9.76711 89.5627 9.61522C89.229 9.46332 88.9705 9.24522 88.7891 8.95896C88.6058 8.67464 88.5151 8.34359 88.5151 7.96775C88.5151 7.59191 88.5942 7.28423 88.7544 6.99991C88.9126 6.7156 89.1595 6.47607 89.4933 6.28523C89.8271 6.09245 90.2476 5.95613 90.7551 5.87629L92.8754 5.52771V6.72923L91.0522 7.04276C90.7416 7.09923 90.512 7.19854 90.3615 7.34265C90.211 7.48675 90.1358 7.67565 90.1358 7.90738C90.1358 8.13912 90.2206 8.31049 90.3924 8.44291C90.5621 8.57533 90.7763 8.64154 91.029 8.64154C91.3551 8.64154 91.6425 8.57143 91.8933 8.43122C92.1442 8.29101 92.3371 8.09628 92.4779 7.84896C92.6168 7.5997 92.6863 7.32707 92.6863 7.03107V5.34661C92.6863 5.06619 92.5763 4.8325 92.3583 4.64361C92.1403 4.45472 91.8528 4.36124 91.494 4.36124C91.1602 4.36124 90.865 4.45082 90.6065 4.63193C90.348 4.81303 90.1589 5.05061 90.0412 5.34661L88.7659 4.7215C88.8933 4.37682 89.0939 4.07888 89.3679 3.82572C89.6419 3.57256 89.966 3.37393 90.3383 3.22983C90.7107 3.08572 91.1158 3.01367 91.5538 3.01367C92.0863 3.01367 92.5551 3.11104 92.9603 3.30772C93.3654 3.50441 93.6818 3.77704 93.9075 4.12561C94.1333 4.47419 94.2471 4.88119 94.2471 5.34661V9.69895H92.7692V8.58117L93.103 8.5578C92.9352 8.83822 92.7384 9.07385 92.5069 9.2608C92.2773 9.44969 92.0149 9.59379 91.7197 9.69311C91.4265 9.79243 91.1004 9.84306 90.7435 9.84306H90.7416Z" fill="white"/>
    <path d="M95.4467 9.69721V3.15604H96.9111V4.61071L96.7915 4.39456C96.942 3.90577 97.1793 3.56498 97.4995 3.37219C97.8217 3.17941 98.2076 3.08398 98.661 3.08398H99.043V4.47829H98.4835C98.0378 4.47829 97.6809 4.61656 97.4108 4.89308C97.1407 5.16961 97.0056 5.55713 97.0056 6.05371V9.69721H95.4448H95.4467Z" fill="white"/>
    <path d="M102.798 9.76945C102.066 9.76945 101.501 9.56693 101.1 9.16188C100.699 8.75683 100.498 8.18625 100.498 7.4482V4.56222H99.3789V3.15623H99.4985C99.8169 3.15623 100.062 3.07249 100.237 2.90307C100.411 2.7356 100.5 2.49023 100.5 2.16892V1.66455H102.061V3.15623H103.55V4.56222H102.061V7.36447C102.061 7.58062 102.097 7.76562 102.174 7.91752C102.25 8.06941 102.369 8.18625 102.531 8.26609C102.693 8.34594 102.902 8.38683 103.156 8.38683C103.212 8.38683 103.278 8.38294 103.353 8.37515C103.429 8.36736 103.502 8.35957 103.573 8.35178V9.69935C103.461 9.71493 103.336 9.73051 103.191 9.74803C103.048 9.76361 102.917 9.7714 102.798 9.7714V9.76945Z" fill="white"/>
    <path d="M104.524 9.697V3.15583H105.989V4.44303L105.869 4.21519C106.02 3.82183 106.269 3.52388 106.614 3.31941C106.959 3.11493 107.362 3.01367 107.824 3.01367C108.285 3.01367 108.723 3.11883 109.093 3.3272C109.462 3.53556 109.751 3.82572 109.957 4.19961C110.164 4.57156 110.268 5.00387 110.268 5.49266V9.7009H108.707V5.8646C108.707 5.5764 108.651 5.32713 108.541 5.11877C108.429 4.9104 108.277 4.74877 108.082 4.63193C107.887 4.51508 107.66 4.45666 107.397 4.45666C107.135 4.45666 106.917 4.51508 106.718 4.63193C106.519 4.74877 106.365 4.9104 106.253 5.11877C106.141 5.32713 106.087 5.5764 106.087 5.8646V9.7009H104.526L104.524 9.697Z" fill="white"/>
    <path d="M114.424 9.84306C113.756 9.84306 113.173 9.69116 112.672 9.38543C112.172 9.08164 111.782 8.6688 111.505 8.14691C111.227 7.62502 111.088 7.0486 111.088 6.41571C111.088 5.78282 111.229 5.17524 111.51 4.66698C111.792 4.15872 112.178 3.75562 112.666 3.45767C113.154 3.16167 113.7 3.01367 114.304 3.01367C114.811 3.01367 115.259 3.09741 115.645 3.26683C116.031 3.4343 116.357 3.66798 116.627 3.96398C116.897 4.25998 117.103 4.59882 117.246 4.9805C117.389 5.36219 117.46 5.77308 117.46 6.21318C117.46 6.32613 117.455 6.44102 117.443 6.56176C117.431 6.68249 117.41 6.7857 117.377 6.87528H112.375V5.67376H116.498L115.759 6.2385C115.83 5.87045 115.813 5.54134 115.705 5.25313C115.597 4.96492 115.423 4.73514 115.18 4.56766C114.937 4.40019 114.646 4.31451 114.304 4.31451C113.963 4.31451 113.689 4.3963 113.434 4.56182C113.179 4.7254 112.986 4.96687 112.857 5.28429C112.726 5.60171 112.676 5.98339 112.709 6.43323C112.676 6.83439 112.73 7.18881 112.869 7.49649C113.008 7.80612 113.214 8.0437 113.488 8.21117C113.762 8.37864 114.078 8.46433 114.435 8.46433C114.792 8.46433 115.097 8.38838 115.346 8.23649C115.597 8.08459 115.793 7.88012 115.936 7.62307L117.198 8.24817C117.071 8.5617 116.872 8.83822 116.602 9.07775C116.332 9.31727 116.011 9.50616 115.643 9.64248C115.273 9.77879 114.867 9.84695 114.422 9.84695L114.424 9.84306Z" fill="white"/>
    <path d="M118.404 9.69721V3.15604H119.868V4.61071L119.749 4.39456C119.899 3.90577 120.136 3.56498 120.457 3.37219C120.779 3.17941 121.165 3.08398 121.618 3.08398H122V4.47829H121.441C120.995 4.47829 120.638 4.61656 120.368 4.89308C120.098 5.16961 119.963 5.55713 119.963 6.05371V9.69721H118.402H118.404Z" fill="white"/>
    <path d="M71.5506 0V8.14385C71.5506 8.86437 71.568 9.56737 71.6008 10.2528C71.6355 10.9383 71.6741 11.6355 71.7204 12.3443C71.7648 13.0531 71.8284 13.7892 71.9075 14.5565C71.9577 15.0472 72.0252 15.5613 72.0985 16.0852L57.2178 0H51.783V23.9992H57.3876V15.9761C57.3876 15.1076 57.3818 14.3072 57.3702 13.577C57.3587 12.8448 57.3297 12.171 57.2853 11.5537C57.239 10.9364 57.1831 10.3483 57.1156 9.78742C57.048 9.22853 56.9844 8.68522 56.9284 8.15943C56.9284 8.1458 56.9246 8.13022 56.9226 8.11464L71.6529 23.9973H77.1552V0H71.5506Z" fill="white"/>
    <path d="M72.0988 16.0832L77.1555 23.9992V0H71.5509C71.5509 0 71.0223 13.1953 72.0988 16.0832Z" fill="#E1373D"/>
    <g clip-path="url(#clip0_4304_90954)">
    <path d="M0 23.6695V0.59375H12.9323C14.4491 0.59375 15.8188 0.923684 17.0382 1.58355C18.2575 2.24342 19.2252 3.14502 19.9411 4.28509C20.657 5.42843 21.0133 6.71223 21.0133 8.14304C21.0133 9.68164 20.6276 11.0602 19.8593 12.2786C19.0879 13.4971 18.0679 14.4543 16.7897 15.1468C15.5148 15.8393 14.0634 16.1856 12.4354 16.1856H5.60965V23.6695H0ZM5.50831 11.2758H11.4808C12.1608 11.2758 12.7786 11.1451 13.3278 10.8805C13.877 10.6159 14.3183 10.2533 14.6485 9.79271C14.9787 9.33211 15.1421 8.81597 15.1421 8.2443C15.1421 7.67264 14.9787 7.18917 14.6485 6.7939C14.3183 6.39863 13.877 6.09156 13.3278 5.86943C12.7786 5.65056 12.1608 5.5395 11.4808 5.5395H5.50831V11.2758Z" fill="white"/>
    <path d="M35.7499 23.9994C33.7918 23.9994 31.9938 23.7348 30.356 23.2089C28.7183 22.683 27.293 21.912 26.0834 20.9026C24.8739 19.8932 23.9389 18.6388 23.2786 17.146C22.6183 15.6531 22.2881 13.9479 22.2881 12.0369C22.2881 10.3219 22.6411 8.74734 23.344 7.30673C24.0468 5.86613 25.0308 4.60846 26.2959 3.53372C27.561 2.45572 29.055 1.62272 30.781 1.02818C32.5071 0.433649 34.3835 0.139648 36.407 0.139648C38.0579 0.139648 39.5584 0.319316 40.9085 0.685183C42.2618 1.04778 43.4648 1.51492 44.5207 2.08659C45.5766 2.65826 46.4331 3.28546 47.0935 3.96493L43.6969 7.68894C43.0595 7.1826 42.373 6.74487 41.6342 6.3692C40.8987 5.9968 40.0879 5.68973 39.2086 5.44473C38.3292 5.203 37.3845 5.08213 36.3711 5.08213C35.204 5.08213 34.122 5.25853 33.1216 5.60806C32.1213 5.96086 31.2452 6.4476 30.4999 7.0748C29.7513 7.702 29.1759 8.43701 28.7673 9.28307C28.3587 10.1291 28.156 11.0471 28.156 12.0369C28.156 13.2456 28.375 14.2942 28.8163 15.186C29.2577 16.0745 29.8559 16.7997 30.6143 17.3616C31.3727 17.9234 32.2423 18.3448 33.2197 18.6323C34.1972 18.9198 35.2367 19.0602 36.3384 19.0602C37.3714 19.0602 38.3325 18.9492 39.2249 18.7303C40.1141 18.5114 40.879 18.2076 41.5165 17.8254C42.154 17.44 42.6541 16.9794 43.017 16.4404C43.3799 15.9014 43.5498 15.3134 43.527 14.6764V13.9838L44.2854 15.3036H35.9069V10.9523H48.9045C48.947 11.2594 48.9797 11.6122 49.0026 12.0075C49.0255 12.4027 49.0353 12.7621 49.0353 13.079V13.7225C49.0353 15.3722 48.7149 16.8389 48.0774 18.1227C47.44 19.4098 46.5312 20.4812 45.3543 21.3371C44.1775 22.193 42.7685 22.8528 41.1308 23.3167C39.493 23.7773 37.695 24.0092 35.7369 24.0092L35.7499 23.9994Z" fill="white"/>
    </g>
    <defs>
    <clipPath id="clip0_4304_90954">
    <rect width="49.0452" height="23.8663" fill="white" transform="translate(0 0.133545)"/>
    </clipPath>
    </defs>
    </svg>
    