<svg viewBox="0 0 21 20" fill="none" xmlns="http://www.w3.org/2000/svg">
    <path d="M17.3172 6.43281L12.9422 2.05781C12.8841 1.99979 12.8152 1.95378 12.7393 1.92241C12.6634 1.89105 12.5821 1.87494 12.5 1.875H5C4.66848 1.875 4.35054 2.0067 4.11612 2.24112C3.8817 2.47554 3.75 2.79348 3.75 3.125V16.875C3.75 17.2065 3.8817 17.5245 4.11612 17.7589C4.35054 17.9933 4.66848 18.125 5 18.125H16.25C16.5815 18.125 16.8995 17.9933 17.1339 17.7589C17.3683 17.5245 17.5 17.2065 17.5 16.875V6.875C17.5001 6.7929 17.484 6.71159 17.4526 6.63572C17.4212 6.55985 17.3752 6.4909 17.3172 6.43281ZM13.125 13.75H8.125C7.95924 13.75 7.80027 13.6842 7.68306 13.5669C7.56585 13.4497 7.5 13.2908 7.5 13.125C7.5 12.9592 7.56585 12.8003 7.68306 12.6831C7.80027 12.5658 7.95924 12.5 8.125 12.5H13.125C13.2908 12.5 13.4497 12.5658 13.5669 12.6831C13.6842 12.8003 13.75 12.9592 13.75 13.125C13.75 13.2908 13.6842 13.4497 13.5669 13.5669C13.4497 13.6842 13.2908 13.75 13.125 13.75ZM13.125 11.25H8.125C7.95924 11.25 7.80027 11.1842 7.68306 11.0669C7.56585 10.9497 7.5 10.7908 7.5 10.625C7.5 10.4592 7.56585 10.3003 7.68306 10.1831C7.80027 10.0658 7.95924 10 8.125 10H13.125C13.2908 10 13.4497 10.0658 13.5669 10.1831C13.6842 10.3003 13.75 10.4592 13.75 10.625C13.75 10.7908 13.6842 10.9497 13.5669 11.0669C13.4497 11.1842 13.2908 11.25 13.125 11.25ZM12.5 6.875V3.4375L15.9375 6.875H12.5Z" fill="#0057B8"/>
</svg>