<svg viewBox="0 0 21 20" fill="none" xmlns="http://www.w3.org/2000/svg">
    <path d="M17.9711 8.10705L11.7211 2.21017C11.718 2.2075 11.7152 2.20463 11.7125 2.20158C11.4824 1.99231 11.1825 1.87634 10.8715 1.87634C10.5604 1.87634 10.2606 1.99231 10.0305 2.20158L10.0219 2.21017L3.77891 8.10705C3.65156 8.22414 3.54991 8.3664 3.48038 8.52482C3.41086 8.68323 3.37497 8.85436 3.375 9.02736V16.25C3.375 16.5815 3.5067 16.8995 3.74112 17.1339C3.97554 17.3683 4.29348 17.5 4.625 17.5H8.375C8.70652 17.5 9.02446 17.3683 9.25888 17.1339C9.4933 16.8995 9.625 16.5815 9.625 16.25V12.5H12.125V16.25C12.125 16.5815 12.2567 16.8995 12.4911 17.1339C12.7255 17.3683 13.0435 17.5 13.375 17.5H17.125C17.4565 17.5 17.7745 17.3683 18.0089 17.1339C18.2433 16.8995 18.375 16.5815 18.375 16.25V9.02736C18.375 8.85436 18.3391 8.68323 18.2696 8.52482C18.2001 8.3664 18.0984 8.22414 17.9711 8.10705ZM17.125 16.25H13.375V12.5C13.375 12.1685 13.2433 11.8506 13.0089 11.6161C12.7745 11.3817 12.4565 11.25 12.125 11.25H9.625C9.29348 11.25 8.97554 11.3817 8.74112 11.6161C8.5067 11.8506 8.375 12.1685 8.375 12.5V16.25H4.625V9.02736L4.63359 9.01955L10.875 3.12501L17.1172 9.01798L17.1258 9.0258L17.125 16.25Z" fill="#667085"/>
</svg>