<svg width="84" height="84" viewBox="0 0 84 84" fill="none" xmlns="http://www.w3.org/2000/svg">
<circle cx="42" cy="42" r="41" fill="#E0E3E8" stroke="#EAECF0" stroke-width="2"/>
<mask id="mask0_5751_132341" style="mask-type:alpha" maskUnits="userSpaceOnUse" x="2" y="2" width="80" height="80">
<circle cx="42" cy="42" r="40" fill="#CCD1D9"/>
</mask>
<g mask="url(#mask0_5751_132341)">
<path d="M42.0073 51.5437H41.9759C41.4928 51.5437 31.4598 51.446 22.9453 49.8281C24.2253 58.9617 32.2692 65.9951 42.0073 65.9951C51.7453 65.9951 59.7892 58.9556 61.0692 49.8281C52.5547 51.446 42.5218 51.5376 42.0386 51.5437H42.0073Z" fill="#C1C7D1"/>
<path d="M62.5114 38.2392H62.2729C62.2729 30.9556 58.2133 24.606 52.1835 21.187L49.04 28.6661C48.6384 29.6246 47.1576 29.2155 47.3333 28.1898L48.7514 20.0331C48.7765 19.8927 48.833 19.7645 48.9145 19.6546C48.5318 18.7021 47.5843 18 46.4424 18H37.5702C36.4094 18 35.4432 18.7204 35.073 19.6973C35.0541 19.7034 35.029 19.7156 35.0102 19.7217C35.0667 19.8194 35.1106 19.9171 35.1294 20.0331L36.5475 28.1898C36.7231 29.2094 35.2424 29.6246 34.8408 28.6661L31.7224 21.248C25.7427 24.6793 21.7333 31.0044 21.7333 38.2454H21.4949C19.5624 38.2454 18 39.7656 18 41.646C18 43.1785 19.0478 44.5217 20.5663 44.9246C29.0933 47.1897 42 47.2813 42 47.2813C42 47.2813 54.9067 47.1836 63.4337 44.9246C64.9522 44.5217 66 43.1785 66 41.646C66 39.7656 64.4376 38.2454 62.5051 38.2454L62.5114 38.2392Z" fill="#98A2B3"/>
</g>
</svg>
