<svg width="28" height="28" viewBox="0 0 28 28" fill="none" xmlns="http://www.w3.org/2000/svg">
<rect x="0.5" y="0.5" width="27" height="27" rx="13.5" stroke="#0057B8"/>
<path d="M20 14C20 14.1326 19.9473 14.2598 19.8536 14.3536C19.7598 14.4473 19.6326 14.5 19.5 14.5H14.5V19.5C14.5 19.6326 14.4473 19.7598 14.3536 19.8536C14.2598 19.9473 14.1326 20 14 20C13.8674 20 13.7402 19.9473 13.6464 19.8536C13.5527 19.7598 13.5 19.6326 13.5 19.5V14.5H8.5C8.36739 14.5 8.24021 14.4473 8.14645 14.3536C8.05268 14.2598 8 14.1326 8 14C8 13.8674 8.05268 13.7402 8.14645 13.6464C8.24021 13.5527 8.36739 13.5 8.5 13.5H13.5V8.5C13.5 8.36739 13.5527 8.24021 13.6464 8.14645C13.7402 8.05268 13.8674 8 14 8C14.1326 8 14.2598 8.05268 14.3536 8.14645C14.4473 8.24021 14.5 8.36739 14.5 8.5V13.5H19.5C19.6326 13.5 19.7598 13.5527 19.8536 13.6464C19.9473 13.7402 20 13.8674 20 14Z" fill="#0057B8"/>
</svg>
