<svg width="20" height="16" viewBox="0 0 20 16" fill="none" xmlns="http://www.w3.org/2000/svg">
<path d="M4.21249 0.704618C4.15761 0.642748 4.09099 0.592387 4.01649 0.556454C3.942 0.520521 3.86111 0.49973 3.77853 0.495287C3.69594 0.490844 3.61329 0.502837 3.53537 0.530571C3.45746 0.558304 3.38582 0.601227 3.32461 0.656852C3.2634 0.712476 3.21384 0.779695 3.17881 0.854614C3.14377 0.929532 3.12395 1.01066 3.1205 1.09329C3.11704 1.17593 3.13003 1.25843 3.15869 1.33601C3.18736 1.41359 3.23114 1.48471 3.28749 1.54524L4.79062 3.19915C1.95312 4.94056 0.732805 7.62493 0.678899 7.74681C0.643362 7.82674 0.625 7.91324 0.625 8.00071C0.625 8.08819 0.643362 8.17469 0.678899 8.25462C0.706243 8.31634 1.36796 9.78353 2.83905 11.2546C4.79921 13.214 7.27499 14.2499 9.99999 14.2499C11.4005 14.2579 12.7868 13.9696 14.068 13.4038L15.7867 15.2952C15.8416 15.3571 15.9082 15.4075 15.9827 15.4434C16.0572 15.4793 16.1381 15.5001 16.2207 15.5046C16.3033 15.509 16.3859 15.497 16.4638 15.4693C16.5417 15.4416 16.6134 15.3986 16.6746 15.343C16.7358 15.2874 16.7854 15.2202 16.8204 15.1452C16.8554 15.0703 16.8753 14.9892 16.8787 14.9066C16.8822 14.8239 16.8692 14.7414 16.8405 14.6639C16.8118 14.5863 16.7681 14.5152 16.7117 14.4546L4.21249 0.704618ZM7.91015 6.62962L11.1656 10.2116C10.6754 10.4696 10.1134 10.5573 9.56783 10.4612C9.02229 10.3651 8.52413 10.0905 8.15157 9.68056C7.77901 9.27063 7.55314 8.74856 7.50945 8.19635C7.46575 7.64414 7.6067 7.09305 7.91015 6.62962ZM9.99999 12.9999C7.5953 12.9999 5.49452 12.1257 3.75546 10.4023C3.04164 9.69289 2.43454 8.88367 1.95312 7.99993C2.31952 7.31321 3.48905 5.39134 5.65234 4.14212L7.05859 5.68509C6.51416 6.38236 6.23377 7.24965 6.26697 8.13366C6.30017 9.01767 6.64483 9.86149 7.24002 10.516C7.83521 11.1704 8.64261 11.5934 9.51952 11.7101C10.3964 11.8269 11.2864 11.6298 12.032 11.1538L13.1828 12.4195C12.1672 12.8091 11.0878 13.006 9.99999 12.9999ZM10.4687 5.54446C10.3059 5.51338 10.162 5.41888 10.0689 5.28174C9.97568 5.14461 9.94079 4.97607 9.97187 4.81321C10.0029 4.65035 10.0975 4.50651 10.2346 4.41333C10.3717 4.32015 10.5403 4.28526 10.7031 4.31634C11.4997 4.47077 12.225 4.87856 12.7708 5.47891C13.3167 6.07925 13.6539 6.83996 13.732 7.64759C13.7475 7.81262 13.6967 7.97703 13.5909 8.10464C13.4851 8.23225 13.333 8.31261 13.168 8.32806C13.1484 8.3292 13.1289 8.3292 13.1094 8.32806C12.9532 8.32873 12.8024 8.27087 12.6867 8.16589C12.571 8.06091 12.4988 7.91641 12.4844 7.76087C12.4318 7.22368 12.2072 6.71781 11.844 6.31848C11.4809 5.91915 10.9985 5.64769 10.4687 5.54446ZM19.3187 8.25462C19.2859 8.32806 18.4945 10.0804 16.7125 11.6765C16.6516 11.7328 16.5801 11.7764 16.5022 11.8047C16.4243 11.8331 16.3415 11.8457 16.2587 11.8418C16.1759 11.8379 16.0947 11.8175 16.0198 11.7819C15.9449 11.7463 15.8779 11.6961 15.8226 11.6343C15.7673 11.5726 15.7249 11.5004 15.6977 11.4221C15.6706 11.3437 15.6593 11.2608 15.6645 11.178C15.6698 11.0953 15.6914 11.0144 15.7282 10.9401C15.765 10.8658 15.8162 10.7996 15.8789 10.7452C16.7532 9.95979 17.4876 9.03147 18.0508 7.99993C17.5683 7.11538 16.9599 6.30562 16.2445 5.59602C14.5055 3.87415 12.4047 2.99993 9.99999 2.99993C9.49332 2.99931 8.98745 3.04034 8.48749 3.12259C8.40619 3.13696 8.32284 3.13509 8.24227 3.11708C8.1617 3.09906 8.08549 3.06526 8.01805 3.01762C7.95062 2.96999 7.89329 2.90946 7.84938 2.83954C7.80547 2.76962 7.77584 2.6917 7.76222 2.61027C7.7486 2.52883 7.75124 2.44551 7.77 2.36511C7.78877 2.2847 7.82327 2.20881 7.87153 2.14182C7.91979 2.07483 7.98085 2.01806 8.05117 1.9748C8.12149 1.93154 8.19969 1.90264 8.28124 1.88977C8.84934 1.79597 9.4242 1.7492 9.99999 1.74993C12.725 1.74993 15.2008 2.78587 17.1609 4.74602C18.632 6.21712 19.2937 7.68509 19.3211 7.74681C19.3566 7.82674 19.375 7.91324 19.375 8.00071C19.375 8.08819 19.3566 8.17469 19.3211 8.25462H19.3187Z" fill="#3D4148"/>
</svg>
