<svg width="195" height="133" viewBox="0 0 195 133" fill="none" xmlns="http://www.w3.org/2000/svg">
<g filter="url(#filter0_d_4_139)">
<g filter="url(#filter1_d_4_139)">
<path d="M78.0625 61H54.9375C51.1057 61 48 57.8943 48 54.0625V30.9375C48 27.1057 51.1057 24 54.9375 24H78.0625C81.8943 24 85 27.1057 85 30.9375V54.0625C85 57.8943 81.8943 61 78.0625 61Z" fill="#1A72DD"/>
</g>
<path fill-rule="evenodd" clip-rule="evenodd" d="M64.3414 33.7167C64.3414 32.7702 65.1116 32 66.0581 32C67.0046 32 67.7749 32.7702 67.7749 33.7167V34.0979C67.7749 34.1375 67.7708 34.1762 67.7631 34.2136H72.3529C72.774 34.2136 73.1163 34.5558 73.1163 34.977C73.1163 35.3982 72.7752 35.7404 72.3529 35.7404H59.7634C59.3422 35.7404 59 35.3982 59 34.977C59 34.5558 59.3411 34.2136 59.7634 34.2136H64.3531C64.3454 34.1762 64.3414 34.1375 64.3414 34.0979V33.7167ZM60.7167 36.5038V47.214C60.7167 47.7462 61.0177 48.212 61.5019 48.4306C61.6815 48.5118 61.8704 48.5507 62.0558 48.5507C62.3717 48.5507 62.683 48.4363 62.9325 48.2154L66.0581 45.4675L69.1814 48.2166C69.5809 48.5679 70.1291 48.6492 70.6132 48.4317C71.0973 48.2131 71.3983 47.7462 71.3983 47.2151V36.5038H60.7167ZM64.1502 48.6732L66.0581 46.9943L67.9649 48.6732V50.4278C67.9649 50.7402 67.7051 51 67.3926 51H64.7225C64.41 51 64.1502 50.7402 64.1502 50.4278V48.6732Z" fill="#F8CF33"/>
</g>
<path d="M95.472 50C95.296 50 95.152 49.952 95.04 49.856C94.928 49.744 94.872 49.6 94.872 49.424V33.8C94.872 33.624 94.928 33.48 95.04 33.368C95.152 33.256 95.296 33.2 95.472 33.2H97.368C97.704 33.2 97.944 33.352 98.088 33.656L102.72 42.296L107.4 33.656C107.56 33.352 107.8 33.2 108.12 33.2H109.992C110.168 33.2 110.312 33.256 110.424 33.368C110.536 33.48 110.592 33.624 110.592 33.8V49.424C110.592 49.6 110.536 49.744 110.424 49.856C110.312 49.952 110.168 50 109.992 50H107.976C107.816 50 107.68 49.944 107.568 49.832C107.456 49.72 107.4 49.584 107.4 49.424V39.032L104.04 45.44C103.832 45.792 103.56 45.968 103.224 45.968H102.24C101.904 45.968 101.632 45.792 101.424 45.44L98.064 39.032V49.424C98.064 49.584 98.008 49.72 97.896 49.832C97.8 49.944 97.664 50 97.488 50H95.472ZM119.557 50.24C117.685 50.24 116.237 49.76 115.213 48.8C114.189 47.824 113.637 46.496 113.557 44.816L113.533 43.76L113.557 42.704C113.637 41.04 114.197 39.72 115.237 38.744C116.277 37.768 117.717 37.28 119.557 37.28C121.397 37.28 122.837 37.768 123.877 38.744C124.917 39.72 125.477 41.04 125.557 42.704C125.573 42.896 125.581 43.248 125.581 43.76C125.581 44.272 125.573 44.624 125.557 44.816C125.477 46.496 124.925 47.824 123.901 48.8C122.877 49.76 121.429 50.24 119.557 50.24ZM119.557 47.864C120.405 47.864 121.061 47.6 121.525 47.072C121.989 46.528 122.245 45.736 122.293 44.696C122.309 44.536 122.317 44.224 122.317 43.76C122.317 43.296 122.309 42.984 122.293 42.824C122.245 41.784 121.989 41 121.525 40.472C121.061 39.928 120.405 39.656 119.557 39.656C118.709 39.656 118.053 39.928 117.589 40.472C117.125 41 116.869 41.784 116.821 42.824L116.797 43.76L116.821 44.696C116.869 45.736 117.125 46.528 117.589 47.072C118.053 47.6 118.709 47.864 119.557 47.864ZM128.84 50C128.68 50 128.544 49.944 128.432 49.832C128.32 49.72 128.264 49.584 128.264 49.424V33.536C128.264 33.36 128.32 33.224 128.432 33.128C128.544 33.016 128.68 32.96 128.84 32.96H130.784C130.96 32.96 131.096 33.016 131.192 33.128C131.304 33.224 131.36 33.36 131.36 33.536V41.744L135.392 37.928C135.44 37.896 135.52 37.832 135.632 37.736C135.728 37.656 135.824 37.6 135.92 37.568C136.016 37.536 136.136 37.52 136.28 37.52H138.512C138.672 37.52 138.8 37.568 138.896 37.664C138.992 37.76 139.04 37.888 139.04 38.048C139.04 38.192 138.96 38.336 138.8 38.48L133.856 43.112L139.4 49.064C139.56 49.224 139.64 49.36 139.64 49.472C139.64 49.632 139.584 49.76 139.472 49.856C139.376 49.952 139.256 50 139.112 50H136.832C136.608 50 136.44 49.976 136.328 49.928C136.232 49.864 136.104 49.752 135.944 49.592L131.36 44.768V49.424C131.36 49.584 131.304 49.72 131.192 49.832C131.096 49.944 130.96 50 130.784 50H128.84ZM142.3 50C142.14 50 142.004 49.944 141.892 49.832C141.78 49.72 141.724 49.584 141.724 49.424V33.8C141.724 33.624 141.772 33.48 141.868 33.368C141.98 33.256 142.124 33.2 142.3 33.2H148.732C150.652 33.2 152.164 33.656 153.268 34.568C154.372 35.464 154.924 36.784 154.924 38.528C154.924 40.272 154.372 41.592 153.268 42.488C152.18 43.368 150.668 43.808 148.732 43.808H145.156V49.424C145.156 49.584 145.1 49.72 144.988 49.832C144.892 49.944 144.756 50 144.58 50H142.3ZM148.612 41.144C149.54 41.144 150.252 40.928 150.748 40.496C151.244 40.048 151.492 39.392 151.492 38.528C151.492 37.696 151.252 37.048 150.772 36.584C150.292 36.104 149.572 35.864 148.612 35.864H145.108V41.144H148.612ZM164 50.24C161.824 50.24 160.128 49.688 158.912 48.584C157.696 47.48 157.056 45.84 156.992 43.664C156.976 43.2 156.968 42.52 156.968 41.624C156.968 40.712 156.976 40.024 156.992 39.56C157.056 37.432 157.712 35.8 158.96 34.664C160.208 33.528 161.888 32.96 164 32.96C166.112 32.96 167.792 33.528 169.04 34.664C170.304 35.8 170.968 37.432 171.032 39.56C171.064 40.488 171.08 41.176 171.08 41.624C171.08 42.056 171.064 42.736 171.032 43.664C170.952 45.84 170.304 47.48 169.088 48.584C167.872 49.688 166.176 50.24 164 50.24ZM164 47.48C165.072 47.48 165.928 47.16 166.568 46.52C167.208 45.864 167.552 44.872 167.6 43.544C167.632 42.584 167.648 41.936 167.648 41.6C167.648 41.232 167.632 40.584 167.6 39.656C167.552 38.328 167.208 37.344 166.568 36.704C165.928 36.048 165.072 35.72 164 35.72C162.944 35.72 162.096 36.048 161.456 36.704C160.816 37.344 160.472 38.328 160.424 39.656C160.408 40.12 160.4 40.768 160.4 41.6C160.4 42.416 160.408 43.064 160.424 43.544C160.472 44.872 160.808 45.864 161.432 46.52C162.072 47.16 162.928 47.48 164 47.48ZM180.063 50.24C178.639 50.24 177.415 50.024 176.391 49.592C175.367 49.16 174.591 48.592 174.063 47.888C173.535 47.184 173.255 46.424 173.223 45.608C173.223 45.464 173.271 45.344 173.367 45.248C173.463 45.152 173.583 45.104 173.727 45.104H175.863C176.055 45.104 176.199 45.144 176.295 45.224C176.407 45.288 176.511 45.4 176.607 45.56C176.767 46.104 177.135 46.56 177.711 46.928C178.287 47.296 179.071 47.48 180.063 47.48C181.199 47.48 182.055 47.296 182.631 46.928C183.207 46.544 183.495 46.016 183.495 45.344C183.495 44.896 183.343 44.528 183.039 44.24C182.751 43.952 182.311 43.704 181.719 43.496C181.143 43.288 180.279 43.032 179.127 42.728C177.239 42.28 175.855 41.688 174.975 40.952C174.111 40.2 173.679 39.136 173.679 37.76C173.679 36.832 173.927 36.008 174.423 35.288C174.935 34.568 175.663 34 176.607 33.584C177.567 33.168 178.679 32.96 179.943 32.96C181.255 32.96 182.391 33.192 183.351 33.656C184.311 34.12 185.039 34.704 185.535 35.408C186.047 36.096 186.319 36.784 186.351 37.472C186.351 37.616 186.303 37.736 186.207 37.832C186.111 37.928 185.991 37.976 185.847 37.976H183.615C183.279 37.976 183.047 37.824 182.919 37.52C182.823 37.008 182.503 36.584 181.959 36.248C181.415 35.896 180.743 35.72 179.943 35.72C179.047 35.72 178.343 35.888 177.831 36.224C177.319 36.56 177.063 37.048 177.063 37.688C177.063 38.136 177.191 38.504 177.447 38.792C177.703 39.08 178.103 39.336 178.647 39.56C179.207 39.784 180.007 40.032 181.047 40.304C182.455 40.624 183.575 40.984 184.407 41.384C185.255 41.784 185.879 42.288 186.279 42.896C186.679 43.504 186.879 44.28 186.879 45.224C186.879 46.248 186.591 47.144 186.015 47.912C185.455 48.664 184.655 49.24 183.615 49.64C182.591 50.04 181.407 50.24 180.063 50.24ZM189.774 50C189.614 50 189.478 49.944 189.366 49.832C189.254 49.72 189.198 49.584 189.198 49.424V47.048C189.198 46.888 189.254 46.752 189.366 46.64C189.478 46.512 189.614 46.448 189.774 46.448H192.174C192.334 46.448 192.47 46.512 192.582 46.64C192.694 46.752 192.75 46.888 192.75 47.048V49.424C192.75 49.584 192.694 49.72 192.582 49.832C192.47 49.944 192.334 50 192.174 50H189.774Z" fill="#1A72DD"/>
<defs>
<filter id="filter0_d_4_139" x="0" y="0" width="133" height="133" filterUnits="userSpaceOnUse" color-interpolation-filters="sRGB">
<feFlood flood-opacity="0" result="BackgroundImageFix"/>
<feColorMatrix in="SourceAlpha" type="matrix" values="0 0 0 0 0 0 0 0 0 0 0 0 0 0 0 0 0 0 127 0" result="hardAlpha"/>
<feOffset dy="24"/>
<feGaussianBlur stdDeviation="24"/>
<feColorMatrix type="matrix" values="0 0 0 0 0.101961 0 0 0 0 0.447059 0 0 0 0 0.866667 0 0 0 0.15 0"/>
<feBlend mode="normal" in2="BackgroundImageFix" result="effect1_dropShadow_4_139"/>
<feBlend mode="normal" in="SourceGraphic" in2="effect1_dropShadow_4_139" result="shape"/>
</filter>
<filter id="filter1_d_4_139" x="28" y="10" width="77" height="77" filterUnits="userSpaceOnUse" color-interpolation-filters="sRGB">
<feFlood flood-opacity="0" result="BackgroundImageFix"/>
<feColorMatrix in="SourceAlpha" type="matrix" values="0 0 0 0 0 0 0 0 0 0 0 0 0 0 0 0 0 0 127 0" result="hardAlpha"/>
<feOffset dy="6"/>
<feGaussianBlur stdDeviation="10"/>
<feColorMatrix type="matrix" values="0 0 0 0 0 0 0 0 0 0 0 0 0 0 0 0 0 0 0.06 0"/>
<feBlend mode="normal" in2="BackgroundImageFix" result="effect1_dropShadow_4_139"/>
<feBlend mode="normal" in="SourceGraphic" in2="effect1_dropShadow_4_139" result="shape"/>
</filter>
</defs>
</svg>
